<?xml version="1.0" encoding="UTF-8"?><svg id="Layer_2" xmlns="http://www.w3.org/2000/svg" xmlns:xlink="http://www.w3.org/1999/xlink" viewBox="0 0 193.79 32.8"><defs><style>.cls-1{fill:url(#linear-gradient);}.cls-2{fill:#fff;}.cls-3{fill:url(#linear-gradient-8);}.cls-4{fill:url(#linear-gradient-9);}.cls-5{fill:url(#linear-gradient-3);}.cls-6{fill:url(#linear-gradient-4);}.cls-7{fill:url(#linear-gradient-2);}.cls-8{fill:url(#linear-gradient-6);}.cls-9{fill:url(#linear-gradient-7);}.cls-10{fill:url(#linear-gradient-5);}.cls-11{fill:url(#linear-gradient-14);}.cls-12{fill:url(#linear-gradient-13);}.cls-13{fill:url(#linear-gradient-12);}.cls-14{fill:url(#linear-gradient-10);}.cls-15{fill:url(#linear-gradient-11);}</style><linearGradient id="linear-gradient" x1="192.07" y1="2.32" x2="-11.66" y2="21.5" gradientTransform="translate(0 24.08) scale(1 -1)" gradientUnits="userSpaceOnUse"><stop offset="0" stop-color="#fec670"/><stop offset=".64" stop-color="#db475d"/><stop offset="1" stop-color="#762b83"/><stop offset="1" stop-color="#702b85"/></linearGradient><linearGradient id="linear-gradient-2" x1="193.78" y1="20.43" x2="-9.96" y2="39.61" xlink:href="#linear-gradient"/><linearGradient id="linear-gradient-3" x1="191.21" y1="-6.91" x2="-12.53" y2="12.26" xlink:href="#linear-gradient"/><linearGradient id="linear-gradient-4" x1="191.43" y1="-4.51" x2="-12.31" y2="14.67" xlink:href="#linear-gradient"/><linearGradient id="linear-gradient-5" x1="191.71" y1="-1.59" x2="-12.03" y2="17.59" xlink:href="#linear-gradient"/><linearGradient id="linear-gradient-6" x1="192.14" y1="3.01" x2="-11.6" y2="22.18" xlink:href="#linear-gradient"/><linearGradient id="linear-gradient-7" x1="191.95" y1=".98" x2="-11.79" y2="20.16" xlink:href="#linear-gradient"/><linearGradient id="linear-gradient-8" x1="192.08" y1="2.37" x2="-11.66" y2="21.55" xlink:href="#linear-gradient"/><linearGradient id="linear-gradient-9" x1="192.59" y1="7.79" x2="-11.15" y2="26.96" xlink:href="#linear-gradient"/><linearGradient id="linear-gradient-10" x1="192.43" y1="6.09" x2="-11.31" y2="25.26" xlink:href="#linear-gradient"/><linearGradient id="linear-gradient-11" x1="192.57" y1="7.58" x2="-11.17" y2="26.75" xlink:href="#linear-gradient"/><linearGradient id="linear-gradient-12" x1="192.71" y1="9.03" x2="-11.03" y2="28.21" xlink:href="#linear-gradient"/><linearGradient id="linear-gradient-13" x1="192.81" y1="10.17" x2="-10.92" y2="29.34" xlink:href="#linear-gradient"/><linearGradient id="linear-gradient-14" x1="192.65" y1="-4.57" x2="-11.09" y2="14.61" gradientTransform="translate(8.6 -17.35) rotate(45) scale(1 -1)" xlink:href="#linear-gradient"/></defs><g id="Layer_2-2"><path class="cls-2" d="m1.65,32.72v-4.18H.05v-.72h4.23v.72h-1.61v4.18h-1.01Z"/><path class="cls-2" d="m12.66,32.72v-4.9h1.01v2.04h2.47v-2.04h1.01v4.9h-1.01v-2.13h-2.47v2.13h-1.01Z"/><path class="cls-2" d="m25.85,32.72v-4.9h3.6v.72h-2.59v1.34h2.35v.7h-2.35v1.41h2.59v.72h-3.6Z"/><path class="cls-2" d="m49.95,32.8c-.52,0-.97-.1-1.36-.31-.39-.21-.69-.5-.91-.88-.22-.38-.32-.81-.32-1.31s.11-.95.33-1.33c.22-.39.54-.69.95-.9s.9-.33,1.47-.33c.65,0,1.18.14,1.61.41s.7.66.83,1.14h-1.13c-.08-.23-.24-.41-.46-.54-.22-.13-.5-.19-.85-.19-.55,0-.98.16-1.28.47-.3.31-.45.74-.45,1.28s.15.96.44,1.26.7.44,1.21.44.87-.12,1.13-.36c.25-.24.41-.56.46-.95h-1.39v-.67h2.41v2.69h-.93l-.08-.64c-.18.23-.4.41-.67.54-.27.13-.61.19-1.02.19Z"/><path class="cls-2" d="m60.9,32.72l2.01-4.9h1.13l2.01,4.9h-1.07l-.44-1.13h-2.15l-.45,1.13h-1.05Zm1.78-1.83h1.6l-.8-2.04-.79,2.04Z"/><path class="cls-2" d="m74.41,32.72v-4.9h1.2l1.75,3.11,1.73-3.11h1.2v4.9h-1.01v-3.38l-1.53,2.68h-.79l-1.54-2.68v3.38h-1.01Z"/><path class="cls-2" d="m88.99,32.72v-4.9h3.6v.72h-2.59v1.34h2.35v.7h-2.35v1.41h2.59v.72h-3.6Z"/><path class="cls-2" d="m113.18,32.8c-.56,0-1.03-.11-1.43-.32-.4-.21-.71-.51-.92-.89-.22-.38-.32-.82-.32-1.32s.11-.94.32-1.32.52-.68.92-.9c.4-.21.88-.32,1.43-.32.66,0,1.2.15,1.63.44.42.29.69.7.79,1.23h-1.11c-.07-.27-.21-.48-.44-.63s-.52-.23-.89-.23c-.51,0-.91.15-1.2.46-.29.31-.43.73-.43,1.27s.14.96.43,1.26c.29.31.69.46,1.2.46.37,0,.66-.07.89-.21.22-.14.37-.34.44-.59h1.11c-.1.5-.37.9-.79,1.18-.42.29-.96.43-1.63.43Z"/><path class="cls-2" d="m124.12,32.72v-4.9h1.01v2.04h2.47v-2.04h1.01v4.9h-1.01v-2.13h-2.47v2.13h-1.01Z"/><path class="cls-2" d="m136.96,32.72l2.01-4.9h1.13l2.01,4.9h-1.07l-.44-1.13h-2.15l-.45,1.13h-1.05Zm1.78-1.83h1.6l-.8-2.04-.79,2.04Z"/><path class="cls-2" d="m150.46,32.72v-4.9h1.01l2.59,3.45v-3.45h1.01v4.9h-1.01l-2.59-3.44v3.44h-1.01Z"/><path class="cls-2" d="m166.18,32.8c-.52,0-.97-.1-1.36-.31-.39-.21-.69-.5-.91-.88-.22-.38-.32-.81-.32-1.31s.11-.95.33-1.33c.22-.39.54-.69.95-.9.41-.22.9-.33,1.47-.33.65,0,1.18.14,1.61.41s.7.66.83,1.14h-1.13c-.08-.23-.24-.41-.46-.54-.22-.13-.5-.19-.85-.19-.55,0-.98.16-1.27.47-.3.31-.45.74-.45,1.28s.15.96.44,1.26c.3.3.7.44,1.21.44s.88-.12,1.13-.36c.25-.24.41-.56.46-.95h-1.39v-.67h2.41v2.69h-.93l-.08-.64c-.18.23-.4.41-.67.54-.27.13-.61.19-1.02.19Z"/><path class="cls-2" d="m177.49,32.72v-4.9h3.6v.72h-2.59v1.34h2.35v.7h-2.35v1.41h2.59v.72h-3.6Z"/><path class="cls-2" d="m189.68,32.72v-4.9h2.02c.44,0,.8.07,1.09.2.29.13.5.31.64.54s.21.48.21.75c0,.3-.09.57-.26.82s-.45.43-.82.54l1.14,2.05h-1.16l-1.02-1.93h-.83v1.93h-1.01Zm1.01-2.59h.95c.34,0,.58-.07.74-.22s.24-.34.24-.57-.08-.42-.23-.56c-.15-.14-.41-.21-.75-.21h-.94v1.56Z"/><g id="Layer_1-2"><path class="cls-1" d="m169.71,21.37c-.95,0-1.72-.77-1.72-1.72s.77-1.72,1.72-1.72,1.72.77,1.72,1.72-.77,1.72-1.72,1.72Z"/><path class="cls-7" d="m192.04,5.2c-.95,0-1.72-.77-1.72-1.72s.77-1.72,1.72-1.72,1.72.77,1.72,1.72-.77,1.72-1.72,1.72Z"/><path class="cls-5" d="m24.88,21.39h-3.54v-8.46c0-2.21-1.29-3.24-4.06-3.24h-3.1v11.7h-3.54v-11.7H3.57s-.06.02-.06.11v11.59H0v-12.55c0-1.81.68-2.55,2.33-2.55h14.91c4.92,0,7.63,2.36,7.63,6.64v8.46h.01Z"/><path class="cls-6" d="m36.26,21.39h-3.05c-4.25,0-6.59-2.68-6.59-7.55s2.34-7.55,6.59-7.55h3.05c4.19,0,6.59,2.75,6.59,7.55s-2.4,7.55-6.59,7.55Zm-2.77-11.7c-2.36,0-3.32,1.2-3.32,4.15s.96,4.12,3.32,4.12h2.5c2.36,0,3.32-1.19,3.32-4.12s-.96-4.15-3.32-4.15h-2.5Z"/><path class="cls-10" d="m77.44,21.39h-3.54v-8.46c0-2.21-1.29-3.24-4.06-3.24h-4.75s-.06.02-.06.11v11.59h-3.51v-12.55c0-1.81.68-2.55,2.33-2.55h5.99c4.9,0,7.61,2.36,7.61,6.64v8.46h-.01Z"/><path class="cls-8" d="m83.63,21.39h-3.51V0h3.51v21.39Z"/><path class="cls-9" d="m98.02,21.39h-6.78c-3.38,0-5.16-1.63-5.16-4.72s1.7-4.48,5.19-4.48h6.59v-.8c0-.78-.33-1.7-1.92-1.7h-8.98v-3.4h9.01c3.45,0,5.35,1.8,5.35,5.08v6.81c0,2.08-.52,3.21-3.29,3.21h-.01Zm-6.7-6.29c-1.57,0-1.79.67-1.79,1.4,0,.63.18,1.46,1.73,1.46h6.1c.43,0,.5-.1.5-.44v-2.42h-6.54Z"/><path class="cls-3" d="m119.93,21.39h-3.54v-8.46c0-2.21-1.29-3.24-4.06-3.24h-4.75s-.06.02-.06.11v11.59h-3.51v-12.55c0-1.81.68-2.55,2.33-2.55h5.99c4.9,0,7.61,2.36,7.61,6.64v8.46h-.01Z"/><path class="cls-4" d="m132.51,21.39h-4.01c-4.25,0-6.59-2.68-6.59-7.55s2.34-7.55,6.59-7.55h6.1V0h3.54v14.88c0,4.26-1.95,6.51-5.63,6.51Zm-3.73-11.7c-2.36,0-3.32,1.2-3.32,4.15s.96,4.12,3.32,4.12h2.88c2.14,0,2.94-.87,2.94-3.21v-5.05h-5.82Z"/><path class="cls-14" d="m155.09,21.39h-9.17c-3.45,0-5.35-1.8-5.35-5.08v-4.94c0-3.28,1.9-5.08,5.35-5.08h4.7c3.44,0,5.19,1.6,5.19,4.75s-1.71,4.48-5.22,4.48h-6.59v.74c0,1.13.65,1.7,1.92,1.7h9.17v3.43Zm-11.09-8.76h6.51c1.62,0,1.84-.72,1.84-1.43,0-1-.59-1.51-1.76-1.51h-4.67c-1.59,0-1.92.93-1.92,1.7v1.24Z"/><path class="cls-15" d="m161.44,21.39h-3.51v-10.57c0-3.18,1.26-4.53,4.23-4.53h8.64v3.4h-7.79c-1.11,0-1.57.45-1.57,1.57v10.13Z"/><path class="cls-13" d="m184.29,21.39h-6.78c-3.38,0-5.16-1.63-5.16-4.72s1.7-4.48,5.19-4.48h6.59v-.8c0-.78-.33-1.7-1.92-1.7h-8.98v-3.4h9.01c3.45,0,5.35,1.8,5.35,5.08v6.81c0,2.08-.52,3.21-3.29,3.21h-.01Zm-6.7-6.29c-1.57,0-1.79.67-1.79,1.4,0,.63.18,1.46,1.73,1.46h6.1c.43,0,.5-.1.5-.44v-2.42h-6.54Z"/><path class="cls-12" d="m193.79,21.39h-3.51V6.29h3.51v15.1Z"/><path class="cls-11" d="m56.87,7.94c-.44-.44-.91-.83-1.4-1.16,2.23,3.25,2.14,7.47-.45,10.06s-6.76,2.69-10,.48c.33.47.7.93,1.12,1.35,3.34,3.34,8.44,3.63,11.41.67s2.67-8.07-.67-11.41h0Z"/></g></g></svg>